<?xml version="1.0" encoding="UTF-8" standalone="no"?>
<svg
   width="50px"
   height="50px"
   viewBox="0 0 50 50"
   version="1.1"
   xmlns="http://www.w3.org/2000/svg"
   xmlns:svg="http://www.w3.org/2000/svg">
  <g>
    <path
       style="fill:#8a8a8a;stroke-width:0"
       d="M 25 0 A 25 25 0 0 0 0 25 A 25 25 0 0 0 25 50 A 25 25 0 0 0 50 25 A 25 25 0 0 0 25 0 z" />
    <ellipse
       style="fill:none;stroke:#bdbbb0;stroke-width:4"
       cx="25"
       cy="25"
       rx="10"
       ry="10" />
    <path
       style="fill:none;stroke:#bdbbb0;stroke-width:4;stroke-linecap:round;stroke-linejoin:round"
       d="m 25,5 L 25,10" />
    <path
       style="fill:none;stroke:#bdbbb0;stroke-width:4;stroke-linecap:round;stroke-linejoin:round"
       d="m 25,45 L 25,40" />
    <path
       style="fill:none;stroke:#bdbbb0;stroke-width:4;stroke-linecap:round;stroke-linejoin:round"
       d="M 45,25 H 40" />
    <path
       style="fill:none;stroke:#bdbbb0;stroke-width:4;stroke-linecap:round;stroke-linejoin:round"
       d="M 5,25 H 10" />
    <path
       style="fill:none;stroke:#bdbbb0;stroke-width:4;stroke-linecap:round;stroke-linejoin:round"
       d="M 39,11 35.5,14.5" />
    <path
       style="fill:none;stroke:#bdbbb0;stroke-width:4;stroke-linecap:round;stroke-linejoin:round"
       d="M 11,39 14.5,35.5" />
    <path
       style="fill:none;stroke:#bdbbb0;stroke-width:4;stroke-linecap:round;stroke-linejoin:round"
       d="M 39,39 35.5,35.5" />
    <path
       style="fill:none;stroke:#bdbbb0;stroke-width:4;stroke-linecap:round;stroke-linejoin:round"
       d="M 11,11 14.5,14.5" />
  </g>
</svg>
